<svg xmlns="http://www.w3.org/2000/svg" width="274.138" height="122.186" viewBox="0 0 274.138 122.186"><g transform="translate(-350.405 -321.408)"><path d="M1270.9,583.3a4.144,4.144,0,0,0-1.621.373q-4.617,1.626-6.737,8.857a19.552,19.552,0,0,0-.748,5.613,16.39,16.39,0,0,0,1.746,6.861q-8.733,21.7-17.712,21.7h-.624q-3.367-.123-3.369-4.616,0-3.617,4.991-16.34a107.985,107.985,0,0,1,7.858-15.095,10.719,10.719,0,0,1,3.617-3.617,11.918,11.918,0,0,0,1.372-1h-7.608q-3.621,0-4.74,2.62-.375,1.123-3.991,8.355-1,2-2.745,5.553t-3.243,6.237q-1.5,2.681-3.306,5.674t-3.555,5.365a35.668,35.668,0,0,1-3.867,4.429q-2.122,2.059-3.617,2.057a2.952,2.952,0,0,1-2.433-1.185,6.542,6.542,0,0,1-.936-3.992q0-2.8,2.433-8.046t6.985-14.532q4.551-9.288,9.044-12.535h-7.61q-3.619,0-4.865,2.62-.874,1.745-6.985,13.72s-2.484,4.984-2.516,5.053q-1.188,2.558-1.934,3.929t-2.37,4.3a34.231,34.231,0,0,1-5.364,6.8q-2.994,3.367-6.361,3.368-4.242,0-5.863-3.12A44.408,44.408,0,0,0,1204.7,608a27.079,27.079,0,0,0,2.745-11.227q0-11.474-9.106-11.475-6.114,0-12.911,6.11a41.847,41.847,0,0,0-10.541,14.846,27.052,27.052,0,0,0-2.744,11.227q0,11.478,9.106,11.475,4.866,0,10.6-4.241a10.1,10.1,0,0,0,7.982,3.244,11.5,11.5,0,0,0,5.863-1.872,14.024,14.024,0,0,0,2.619-2.121q1.372-1.372,2.308-2.5a28.979,28.979,0,0,0,2.12-2.993c.326-.516.622-.986.892-1.416a12.623,12.623,0,0,0-.745,4.66,7.3,7.3,0,0,0,3.119,5.674,8.533,8.533,0,0,0,4.989,1.56q7.359,0,16.59-16.84a26.338,26.338,0,0,0-1.122,7.358c-.07,4.448.795,5.941,2,7.424,1.3,1.607,3.119,2.306,6.112,2.306q9.6,0,17.714-14.968,4.49-8.479,9.979-26.694l.624-2.121Q1272.894,583.3,1270.9,583.3Zm-82.412,33.556a10.5,10.5,0,0,0,2,6.11q-3.869,3.371-6.985,3.368-4.369,0-4.367-5.738t4.367-14.719a41.2,41.2,0,0,1,8.232-12.223q4.614-4.493,7.984-4.492,4.612,0,4.615,6.113a28.22,28.22,0,0,1-3.119,12.474,70.116,70.116,0,0,1-4.865,8.855,7.929,7.929,0,0,0,.25-1.933,3.177,3.177,0,0,0-1.06-2.057,3.536,3.536,0,0,0-2.683-1.124Q1188.736,611.495,1188.486,616.86Z" transform="translate(-648.351 -206.636)"/><g transform="translate(472.922 326.276)"><path d="M1020.76,344.535a10.454,10.454,0,0,1,1.043,2.385,13.573,13.573,0,0,1,.553,2.5c.086.929.03,1.938.072,2.935.092,1.994.141,3.991.146,5.494.024,1.5.007,2.5.007,2.5a.108.108,0,0,1-.111.108.109.109,0,0,1-.1-.083s-.243-.973-.562-2.44c-.335-1.464-.742-3.421-1.105-5.383-.186-.981-.47-1.95-.6-2.875a13.522,13.522,0,0,1-.03-2.563,10.469,10.469,0,0,1,.473-2.559.12.12,0,0,1,.216-.025Z" transform="translate(-1001.252 -344.479)" fill="#c9c0b1"/><path d="M1039.858,495.554a10.434,10.434,0,0,1-1.041-2.385,13.444,13.444,0,0,1-.553-2.5c-.087-.929-.032-1.937-.073-2.934-.091-1.993-.139-3.992-.146-5.493-.022-1.5-.007-2.5-.007-2.5a.109.109,0,0,1,.216-.024s.245.973.562,2.44c.335,1.464.743,3.421,1.107,5.382.184.981.468,1.949.594,2.874a13.384,13.384,0,0,1,.03,2.564,10.428,10.428,0,0,1-.472,2.56.123.123,0,0,1-.218.024Z" transform="translate(-1015.459 -451.109)" fill="#c9c0b1"/><path d="M963.281,371.613a10.488,10.488,0,0,1,2.245,1.317,13.488,13.488,0,0,1,1.919,1.7c.617.7,1.165,1.549,1.783,2.332,1.246,1.559,2.46,3.147,3.348,4.358s1.477,2.021,1.477,2.021a.11.11,0,0,1-.026.153.113.113,0,0,1-.135-.005s-.768-.646-1.887-1.645-2.612-2.33-4.059-3.7c-.728-.685-1.525-1.3-2.172-1.975a13.543,13.543,0,0,1-1.532-2.057,10.5,10.5,0,0,1-1.121-2.347.122.122,0,0,1,.161-.148Z" transform="translate(-956.351 -365.881)" fill="#c9c0b1"/><path d="M1065.944,483.712a10.446,10.446,0,0,1-2.245-1.316,13.617,13.617,0,0,1-1.919-1.7c-.615-.7-1.164-1.549-1.783-2.331-1.246-1.558-2.46-3.148-3.347-4.359s-1.478-2.022-1.478-2.022a.11.11,0,0,1,.028-.152.107.107,0,0,1,.133.005s.77.644,1.889,1.643,2.612,2.332,4.059,3.7c.726.684,1.525,1.3,2.171,1.975a13.553,13.553,0,0,1,1.531,2.056,10.4,10.4,0,0,1,1.121,2.349.121.121,0,0,1-.161.147Z" transform="translate(-1028.967 -444.943)" fill="#c9c0b1"/><path d="M931.142,427.488a10.5,10.5,0,0,1,2.59-.254,13.58,13.58,0,0,1,2.553.247c.911.2,1.852.569,2.813.838,1.924.529,3.839,1.1,5.27,1.56,1.435.441,2.384.767,2.384.767a.108.108,0,0,1,.068.139.109.109,0,0,1-.11.074s-1-.07-2.494-.221c-1.5-.133-3.483-.351-5.461-.61-.99-.127-2-.158-2.918-.322a13.515,13.515,0,0,1-2.448-.764A10.44,10.44,0,0,1,931.1,427.7a.121.121,0,0,1-.022-.169A.122.122,0,0,1,931.142,427.488Z" transform="translate(-931.052 -409.771)" fill="#c9c0b1"/><path d="M938.543,468.679a10.419,10.419,0,0,1,1.946-1.728,13.619,13.619,0,0,1,2.208-1.3c.857-.369,1.835-.628,2.769-.976,1.867-.7,3.753-1.365,5.179-1.836s2.379-.781,2.379-.781a.111.111,0,0,1,.137.073.109.109,0,0,1-.047.125s-.852.533-2.147,1.289-3.023,1.763-4.777,2.716c-.875.479-1.711,1.048-2.55,1.454a13.47,13.47,0,0,1-2.43.821,10.451,10.451,0,0,1-2.579.341.122.122,0,0,1-.118-.125A.114.114,0,0,1,938.543,468.679Z" transform="translate(-936.94 -437.246)" fill="#c9c0b1"/><path d="M982.647,489.812a10.451,10.451,0,0,1,.558-2.541,13.63,13.63,0,0,1,1.025-2.351c.476-.8,1.113-1.586,1.665-2.417,1.1-1.667,2.233-3.311,3.112-4.53.864-1.227,1.465-2.029,1.465-2.029a.11.11,0,0,1,.191.106s-.376.931-.98,2.3-1.411,3.2-2.27,5c-.425.9-.767,1.854-1.207,2.676a13.676,13.676,0,0,1-1.483,2.091,10.45,10.45,0,0,1-1.887,1.792.12.12,0,0,1-.168-.031A.11.11,0,0,1,982.647,489.812Z" transform="translate(-971.76 -448.17)" fill="#c9c0b1"/><path d="M1057.551,357.544a10.406,10.406,0,0,1-.56,2.542,13.5,13.5,0,0,1-1.023,2.351c-.478.8-1.114,1.586-1.667,2.417-1.1,1.667-2.233,3.311-3.11,4.53s-1.467,2.03-1.467,2.03a.11.11,0,0,1-.189-.108s.376-.93.98-2.3c.588-1.382,1.409-3.2,2.269-5.005.426-.9.765-1.853,1.207-2.675a13.524,13.524,0,0,1,1.483-2.091,10.412,10.412,0,0,1,1.885-1.792.122.122,0,0,1,.17.031A.131.131,0,0,1,1057.551,357.544Z" transform="translate(-1024.529 -354.687)" fill="#c9c0b1"/></g><path d="M461.05,416.461q0,11.847,9.6,11.851,8.981,0,22.2-10.605,14.47-11.474,19.834-24.2,6.11-14.345,6.112-24.449t-4.053-15.219a13.469,13.469,0,0,0-11.164-5.114,24.173,24.173,0,0,0-3.368.249,20.379,20.379,0,0,1-4.427.748q-1.436,0-1.436-.748,0-1.122,2.308-2.12a9.878,9.878,0,0,1,3.493-1h3.68q7.109,0,13.035,5.613t7.672,16.464a38.069,38.069,0,0,1,.374,5.365q0,9.233-4.367,20.957-6.114,15.467-21.019,26.321t-27.38,10.851q-12.975,0-15.966-11.975a32.67,32.67,0,0,1-.874-8.482q0-5.362,2.62-13.971a208.019,208.019,0,0,1-17.464,24.325,74.391,74.391,0,0,1-11.975,11.6q-6.489,4.866-10.978,4.865-8.858,0-8.856-10.727,0-12.6,16.341-51.395,10.227-24.7,10.229-37.046,0-7.984-4.8-11.042a20.82,20.82,0,0,0-11.413-3.054,30.552,30.552,0,0,0-5.987.621q-22.079,4.494-39.169,23.825-8.485,9.733-11.726,18.651t-3.679,13.22q-.438,4.3-.436,7.11a23.161,23.161,0,0,0,1.06,6.425,18.464,18.464,0,0,0,3.679,6.737q4.864,5.612,13.6,5.613,14.468,0,22.952-15.095,4.367-7.734,4.367-13.971,0-10.224-9.106-10.227a23.613,23.613,0,0,0-3.743.373q-2.245.377-2.12-.5t3.368-1.872a22,22,0,0,1,6.486-1q6.484,0,9.48,4.992a14.024,14.024,0,0,1,1.872,7.358,25.942,25.942,0,0,1-2.37,9.854q-6.362,14.595-22.827,21.456a20.7,20.7,0,0,1-8.108,1.869q-12.227,0-19.46-8.731-5.116-5.989-6.486-15.467a29.215,29.215,0,0,1-.25-3.868,43.488,43.488,0,0,1,4.055-17.276A66.532,66.532,0,0,1,365.5,347.354a73.822,73.822,0,0,1,15.218-13.347,98.126,98.126,0,0,1,17.34-8.982,49.591,49.591,0,0,1,17.588-3.617,41.424,41.424,0,0,1,14.719,2.5q11.976,5.239,11.975,20.082,0,12.227-8.358,31.186-5.739,12.85-10.977,27.567-7.484,20.957-7.484,27.318,0,4.49,3.119,4.49a7.354,7.354,0,0,0,3.867-1.5q6.735-3.994,14.719-15.092t16.59-25.822q8.606-14.718,12.225-19.709t6.237-4.989a3.33,3.33,0,0,1,1.247.249q1.62.872,1.622,3.368a13.774,13.774,0,0,1-.686,4.489q-.688,2-6.425,15.9t-6.362,18.339A52.131,52.131,0,0,0,461.05,416.461Z" transform="translate(0 0)"/><path d="M1094.609,869.476l-.011-7.032-3.44,5.94h-.294l-3.44-5.917v7.008h-.587v-8.218h.5l3.675,6.351,3.674-6.351h.493l.012,8.218Z" transform="translate(-581.044 -425.941)"/><path d="M1173.515,868.936v.54h-5.67v-8.218h5.494v.54h-4.9v3.24h4.379v.528h-4.379v3.369Z" transform="translate(-644.959 -425.941)"/><path d="M1232.883,861.258h3.252a4.76,4.76,0,0,1,2.272.528,3.866,3.866,0,0,1,1.544,1.462,4.346,4.346,0,0,1,0,4.238,3.864,3.864,0,0,1-1.544,1.462,4.762,4.762,0,0,1-2.272.528h-3.252Zm3.205,7.678a4.287,4.287,0,0,0,2.007-.452,3.234,3.234,0,0,0,1.338-1.262,3.9,3.9,0,0,0,0-3.71,3.234,3.234,0,0,0-1.338-1.262,4.292,4.292,0,0,0-2.007-.452h-2.606v7.138Z" transform="translate(-696.274 -425.941)"/><path d="M1306.657,861.258h.6v8.218h-.6Z" transform="translate(-754.481 -425.941)"/><path d="M1378.329,869.005a3.313,3.313,0,0,1-1.274-.8l.27-.446a3.176,3.176,0,0,0,1.168.745,4.19,4.19,0,0,0,1.544.288,2.945,2.945,0,0,0,1.773-.446,1.385,1.385,0,0,0,.6-1.162,1.215,1.215,0,0,0-.317-.88,2.1,2.1,0,0,0-.786-.5,10.8,10.8,0,0,0-1.268-.364,12.318,12.318,0,0,1-1.45-.434,2.313,2.313,0,0,1-.928-.652,1.739,1.739,0,0,1-.381-1.18,2.008,2.008,0,0,1,.317-1.1,2.155,2.155,0,0,1,.969-.793,3.962,3.962,0,0,1,1.626-.293,4.586,4.586,0,0,1,1.339.2,3.94,3.94,0,0,1,1.139.54l-.223.481a3.807,3.807,0,0,0-1.086-.517,4.09,4.09,0,0,0-1.168-.176,2.766,2.766,0,0,0-1.726.458,1.435,1.435,0,0,0-.587,1.186,1.215,1.215,0,0,0,.317.88,2.094,2.094,0,0,0,.787.5,11.87,11.87,0,0,0,1.28.376,11.991,11.991,0,0,1,1.444.434,2.375,2.375,0,0,1,.922.64,1.677,1.677,0,0,1,.381,1.156,1.954,1.954,0,0,1-.323,1.092,2.2,2.2,0,0,1-.992.786,4.087,4.087,0,0,1-1.644.294A4.787,4.787,0,0,1,1378.329,869.005Z" transform="translate(-810.025 -425.722)"/><path d="M1448.082,861.992a2.783,2.783,0,0,1,0,4.062,3.684,3.684,0,0,1-2.43.733H1443.3v2.688h-.6v-8.218h2.947A3.685,3.685,0,0,1,1448.082,861.992Zm-.422,3.68a2.3,2.3,0,0,0,0-3.293,3.048,3.048,0,0,0-2.008-.581H1443.3v4.449h2.348A3.07,3.07,0,0,0,1447.659,865.672Z" transform="translate(-861.823 -425.941)"/><path d="M1507.748,867.163h-4.766l-1.045,2.313h-.646l3.78-8.218h.6l3.78,8.218h-.646Zm-.223-.505-2.16-4.743-2.148,4.743Z" transform="translate(-908.047 -425.941)"/></g></svg>